<svg width="123" height="37" viewBox="0 0 123 37" fill="none" xmlns="http://www.w3.org/2000/svg"><path d="M0 8C0 4.22876 0 2.34315 1.17157 1.17157C2.34315 0 4.22876 0 8 0H107C114.542 0 118.314 0 120.657 2.34315C123 4.68629 123 8.45753 123 16V21C123 28.5425 123 32.3137 120.657 34.6569C118.314 37 114.542 37 107 37H8C4.22876 37 2.34315 37 1.17157 35.8284C0 34.6569 0 32.7712 0 29V8Z" fill="url(#paint0_linear_1507_44472)"/><defs><linearGradient id="paint0_linear_1507_44472" x1="120.437" y1="18.5" x2="33.0876" y2="-20.8344" gradientUnits="userSpaceOnUse"><stop stop-color="#ED456D"/><stop offset="1" stop-color="#F36F45"/></linearGradient><linearGradient id="paint1_linear_1507_44472" x1="7.01672" y1="13.9211" x2="6.15587" y2="20.1331" gradientUnits="userSpaceOnUse"><stop stop-color="white" stop-opacity="0"/><stop offset="1" stop-color="white"/></linearGradient></defs></svg>